<svg xmlns="http://www.w3.org/2000/svg" viewBox="0 0 960 420" role="img" aria-labelledby="title">
  <title id="title">AUREX Tempest E-Hybrid</title>
  <defs>
    <linearGradient id="paint" x1="72" y1="218" x2="884" y2="218">
      <stop offset="0" stop-color="#0c0f12"/>
      <stop offset=".18" stop-color="#2a223f"/>
      <stop offset=".45" stop-color="#cc2e42"/>
      <stop offset=".72" stop-color="#ef6c36"/>
      <stop offset="1" stop-color="#101314"/>
    </linearGradient>
    <linearGradient id="glass" x1="324" y1="112" x2="698" y2="230">
      <stop offset="0" stop-color="#f6ffff"/>
      <stop offset=".42" stop-color="#4fd4c8"/>
      <stop offset="1" stop-color="#162128"/>
    </linearGradient>
  </defs>
  <rect width="960" height="420" fill="none"/>
  <ellipse cx="484" cy="335" rx="405" ry="52" fill="#000" opacity=".34"/>
  <path d="M59 279c64-75 158-111 282-110 53-65 137-96 252-90 97 5 178 42 242 109 48 8 87 25 116 50 18 15 13 43-9 53-63 29-160 44-292 44H228c-88 0-144-17-169-52-1-1-1-3 0-4Z" fill="url(#paint)"/>
  <path d="M344 166c51-49 119-72 203-70 80 2 148 31 204 86-85 4-168 4-250 1-59-2-112-8-157-17Z" fill="url(#glass)"/>
  <path d="M91 284c93 20 209 29 348 29h277c83 0 155-11 216-32-29 36-121 55-276 55H221c-66 0-109-17-130-52Z" fill="#080a0b"/>
  <path d="M118 269c60-47 133-74 220-79l-42 86c-76 9-135 6-178-7Z" fill="#4fd4c8" opacity=".78"/>
  <path d="M745 212c66 9 119 26 159 51-50 8-115 4-195-12Z" fill="#fff0b6" opacity=".82"/>
  <circle cx="286" cy="326" r="67" fill="#050607"/>
  <circle cx="286" cy="326" r="41" fill="#111719" stroke="#4fd4c8" stroke-width="8"/>
  <circle cx="286" cy="326" r="12" fill="#fff6d4"/>
  <circle cx="716" cy="326" r="67" fill="#050607"/>
  <circle cx="716" cy="326" r="41" fill="#111719" stroke="#4fd4c8" stroke-width="8"/>
  <circle cx="716" cy="326" r="12" fill="#fff6d4"/>
  <path d="M430 207h210" stroke="#fff6d4" stroke-width="5" stroke-linecap="round" opacity=".62"/>
</svg>
