<svg xmlns="http://www.w3.org/2000/svg" viewBox="0 0 960 420" role="img" aria-labelledby="title">
  <title id="title">AUREX Noctis V12</title>
  <defs>
    <linearGradient id="paint" x1="80" y1="200" x2="880" y2="200">
      <stop offset="0" stop-color="#0b0d0e"/>
      <stop offset=".25" stop-color="#8a4e24"/>
      <stop offset=".52" stop-color="#f0a44f"/>
      <stop offset=".8" stop-color="#2f1711"/>
      <stop offset="1" stop-color="#080909"/>
    </linearGradient>
    <linearGradient id="glass" x1="300" y1="112" x2="610" y2="228">
      <stop offset="0" stop-color="#dbfcff"/>
      <stop offset=".5" stop-color="#5dbac1"/>
      <stop offset="1" stop-color="#121c20"/>
    </linearGradient>
  </defs>
  <rect width="960" height="420" fill="none"/>
  <ellipse cx="480" cy="332" rx="390" ry="48" fill="#000" opacity=".32"/>
  <path d="M74 273c52-65 135-98 250-110 49-64 122-96 220-96 108 0 195 34 263 101 58 10 105 30 141 62 14 13 11 36-6 46-59 37-166 55-320 55H231c-83 0-136-18-160-53-2-2-1-4 3-5Z" fill="url(#paint)"/>
  <path d="M316 162c43-48 102-72 178-72 75 0 137 25 187 75-70 5-139 7-207 7-55 0-108-3-158-10Z" fill="url(#glass)"/>
  <path d="M105 277c77 15 178 23 304 23h309c90 0 164-9 223-27-44 39-146 59-305 59H236c-72 0-116-18-131-55Z" fill="#0a0d0e"/>
  <path d="M703 187c84 9 154 31 210 66-72 3-145-4-219-21Z" fill="#ffe1a0" opacity=".8"/>
  <circle cx="268" cy="323" r="66" fill="#050607"/>
  <circle cx="268" cy="323" r="38" fill="#111719" stroke="#d6914b" stroke-width="8"/>
  <circle cx="268" cy="323" r="10" fill="#fff6d4"/>
  <circle cx="721" cy="323" r="66" fill="#050607"/>
  <circle cx="721" cy="323" r="38" fill="#111719" stroke="#d6914b" stroke-width="8"/>
  <circle cx="721" cy="323" r="10" fill="#fff6d4"/>
  <path d="M386 205h220" stroke="#fff5ca" stroke-width="5" stroke-linecap="round" opacity=".54"/>
</svg>
