<svg xmlns="http://www.w3.org/2000/svg" viewBox="0 0 960 420" role="img" aria-labelledby="title">
  <title id="title">AUREX Rayo GT4</title>
  <defs>
    <linearGradient id="paint" x1="70" y1="226" x2="870" y2="226">
      <stop offset="0" stop-color="#101211"/>
      <stop offset=".23" stop-color="#74630f"/>
      <stop offset=".55" stop-color="#f3c231"/>
      <stop offset=".75" stop-color="#c9ff6a"/>
      <stop offset="1" stop-color="#111414"/>
    </linearGradient>
    <linearGradient id="glass" x1="330" y1="122" x2="650" y2="218">
      <stop offset="0" stop-color="#eaffff"/>
      <stop offset=".48" stop-color="#7bd5d1"/>
      <stop offset="1" stop-color="#142022"/>
    </linearGradient>
  </defs>
  <rect width="960" height="420" fill="none"/>
  <ellipse cx="484" cy="337" rx="385" ry="49" fill="#000" opacity=".35"/>
  <path d="M87 284c50-66 129-103 237-113 50-58 122-88 216-88 102 0 182 32 239 96 55 6 104 19 146 40-38 12-80 20-126 24 53 11 91 27 115 47-63 31-165 47-306 47H246c-84 0-138-17-162-50-2-2-1-3 3-3Z" fill="url(#paint)"/>
  <path d="M337 171c42-44 101-66 176-66 76 0 136 23 181 70-68 6-132 8-193 8-59 0-114-4-164-12Z" fill="url(#glass)"/>
  <path d="M126 285c78 18 177 27 296 27h285c87 0 154-8 203-23-32 31-121 47-265 47H241c-60 0-98-17-115-51Z" fill="#0a0c0c"/>
  <path d="M722 194c76 7 139 22 188 45-43 10-106 12-189 7Z" fill="#fff6c6" opacity=".82"/>
  <path d="M150 262c73-42 143-62 210-61l-53 70c-67 9-120 6-157-9Z" fill="#111414" opacity=".48"/>
  <circle cx="287" cy="327" r="65" fill="#050607"/>
  <circle cx="287" cy="327" r="38" fill="#111719" stroke="#c9ff6a" stroke-width="8"/>
  <circle cx="287" cy="327" r="10" fill="#fff6d4"/>
  <circle cx="712" cy="327" r="65" fill="#050607"/>
  <circle cx="712" cy="327" r="38" fill="#111719" stroke="#c9ff6a" stroke-width="8"/>
  <circle cx="712" cy="327" r="10" fill="#fff6d4"/>
  <path d="M388 211h210" stroke="#fff6d4" stroke-width="5" stroke-linecap="round" opacity=".52"/>
</svg>
