<svg xmlns="http://www.w3.org/2000/svg" viewBox="0 0 1180 760" role="img" aria-labelledby="title">
  <title id="title">AUREX cockpit interior</title>
  <defs>
    <linearGradient id="cabin" x1="0" y1="0" x2="1" y2="1"><stop stop-color="#060708"/><stop offset=".55" stop-color="#141819"/><stop offset="1" stop-color="#25170f"/></linearGradient>
    <linearGradient id="leather" x1="190" y1="530" x2="980" y2="530"><stop stop-color="#0b0d0e"/><stop offset=".45" stop-color="#32211a"/><stop offset="1" stop-color="#0b0d0e"/></linearGradient>
    <linearGradient id="screen" x1="360" y1="270" x2="800" y2="390"><stop stop-color="#a7ffff"/><stop offset=".45" stop-color="#4fd4c8"/><stop offset="1" stop-color="#0b171a"/></linearGradient>
    <filter id="shadow"><feDropShadow dx="0" dy="26" stdDeviation="24" flood-color="#000" flood-opacity=".7"/></filter>
    <filter id="glow"><feGaussianBlur stdDeviation="4" result="b"/><feMerge><feMergeNode in="b"/><feMergeNode in="SourceGraphic"/></feMerge></filter>
  </defs>
  <rect width="1180" height="760" fill="url(#cabin)"/>
  <path d="M0 0h1180v230C890 165 672 150 502 176 326 203 160 214 0 184Z" fill="#030404"/>
  <path d="M120 530 C292 438 472 398 660 408 C828 417 958 458 1060 530 L1040 760 H146Z" fill="url(#leather)" filter="url(#shadow)"/>
  <path d="M218 512 C330 420 448 374 572 374 C710 374 842 421 968 516" fill="none" stroke="#d6914b" stroke-opacity=".38" stroke-width="8" stroke-linecap="round"/>
  <path d="M330 298h512c34 0 62 28 62 62v56c0 34-28 62-62 62H330c-34 0-62-28-62-62v-56c0-34 28-62 62-62Z" fill="#060909" stroke="#ffffff" stroke-opacity=".12"/>
  <path d="M392 328h392c22 0 40 18 40 40v26c0 22-18 40-40 40H392c-22 0-40-18-40-40v-26c0-22 18-40 40-40Z" fill="url(#screen)" filter="url(#glow)"/>
  <path d="M414 380h90M550 380h148M740 380h44" stroke="#fff" stroke-opacity=".78" stroke-width="8" stroke-linecap="round"/>
  <circle cx="590" cy="548" r="122" fill="#090d0e" stroke="#333d3f" stroke-width="20" filter="url(#shadow)"/>
  <circle cx="590" cy="548" r="70" fill="#151b1c" stroke="#d6914b" stroke-width="8"/>
  <path d="M502 548h176M590 460v176" stroke="#657174" stroke-width="12" stroke-linecap="round"/>
  <path d="M160 638 C275 592 410 580 562 602M620 602 C777 580 914 592 1034 640" stroke="#fff" stroke-opacity=".12" stroke-width="10" stroke-linecap="round"/>
  <path d="M214 268 C348 208 478 182 604 190 C762 200 894 226 1000 268" fill="none" stroke="#ffffff" stroke-opacity=".08" stroke-width="40" stroke-linecap="round"/>
</svg>
