<svg xmlns="http://www.w3.org/2000/svg" viewBox="0 0 1280 760" role="img" aria-labelledby="title">
  <title id="title">AUREX Tempest E-Hybrid realistic studio render</title>
  <defs>
    <linearGradient id="bg" x1="0" y1="0" x2="1" y2="1"><stop stop-color="#030506"/><stop offset=".55" stop-color="#11191c"/><stop offset="1" stop-color="#171025"/></linearGradient>
    <linearGradient id="paint" x1="110" y1="396" x2="1180" y2="396"><stop stop-color="#07090a"/><stop offset=".18" stop-color="#241a3c"/><stop offset=".42" stop-color="#b92739"/><stop offset=".62" stop-color="#f06436"/><stop offset=".82" stop-color="#58151f"/><stop offset="1" stop-color="#090b0c"/></linearGradient>
    <linearGradient id="glass" x1="430" y1="215" x2="870" y2="367"><stop stop-color="#f4ffff"/><stop offset=".36" stop-color="#4fd4c8"/><stop offset="1" stop-color="#121d22"/></linearGradient>
    <radialGradient id="wheel" cx="50%" cy="50%" r="50%"><stop offset="0" stop-color="#e9ffff"/><stop offset=".15" stop-color="#244b51"/><stop offset=".52" stop-color="#070909"/><stop offset="1" stop-color="#000"/></radialGradient>
    <filter id="shadow"><feDropShadow dx="0" dy="28" stdDeviation="26" flood-color="#000" flood-opacity=".64"/></filter>
    <filter id="glow"><feGaussianBlur stdDeviation="5" result="b"/><feMerge><feMergeNode in="b"/><feMergeNode in="SourceGraphic"/></feMerge></filter>
  </defs>
  <rect width="1280" height="760" fill="url(#bg)"/>
  <path d="M0 590 C248 520 530 510 842 546 C1035 568 1170 540 1280 492 L1280 760 L0 760Z" fill="#060909"/>
  <path d="M210 618 C485 572 820 570 1118 620" stroke="#4fd4c8" stroke-opacity=".22" stroke-width="8" stroke-linecap="round"/>
  <ellipse cx="654" cy="600" rx="492" ry="70" fill="#000" opacity=".54"/>
  <g filter="url(#shadow)">
    <path d="M95 522c83-96 202-143 357-140 71-95 181-139 330-129 119 8 220 58 303 151 59 9 107 28 143 57 26 21 20 60-12 74-83 36-219 54-408 54H338c-117 0-197-21-240-62-5-5-6-7-3-5Z" fill="url(#paint)"/>
    <path d="M459 374c70-76 159-113 269-111 104 2 193 43 268 122-102 5-203 6-302 2-90-3-169-8-235-13Z" fill="url(#glass)"/>
    <path d="M170 511c125 29 271 43 438 43h304c126 0 229-17 309-52-38 57-176 85-412 85H335c-93 0-148-25-165-76Z" fill="#050708"/>
    <path d="M206 494c88-64 188-96 301-96l-62 99c-103 15-183 14-239-3Z" fill="#4fd4c8" opacity=".85" filter="url(#glow)"/>
    <path d="M928 418c98 14 181 39 250 74-65 13-164 6-296-20Z" fill="#fff6c8" opacity=".86" filter="url(#glow)"/>
    <path d="M560 431h338" stroke="#fff6d4" stroke-width="7" stroke-linecap="round" opacity=".58"/>
  </g>
  <circle cx="386" cy="580" r="94" fill="url(#wheel)"/>
  <circle cx="386" cy="580" r="58" fill="#111719" stroke="#4fd4c8" stroke-width="10"/>
  <circle cx="386" cy="580" r="16" fill="#fff6d4"/>
  <circle cx="914" cy="580" r="94" fill="url(#wheel)"/>
  <circle cx="914" cy="580" r="58" fill="#111719" stroke="#4fd4c8" stroke-width="10"/>
  <circle cx="914" cy="580" r="16" fill="#fff6d4"/>
</svg>
