<svg xmlns="http://www.w3.org/2000/svg" viewBox="0 0 1280 760" role="img" aria-labelledby="title">
  <title id="title">AUREX Noctis V12 realistic studio render</title>
  <defs>
    <linearGradient id="bg" x1="0" y1="0" x2="1" y2="1"><stop stop-color="#050607"/><stop offset=".6" stop-color="#141819"/><stop offset="1" stop-color="#2a160d"/></linearGradient>
    <linearGradient id="paint" x1="120" y1="395" x2="1160" y2="395"><stop stop-color="#080a0b"/><stop offset=".2" stop-color="#482116"/><stop offset=".48" stop-color="#dc8742"/><stop offset=".66" stop-color="#f7c17a"/><stop offset=".84" stop-color="#522016"/><stop offset="1" stop-color="#080a0b"/></linearGradient>
    <linearGradient id="glass" x1="410" y1="220" x2="820" y2="360"><stop stop-color="#eaffff"/><stop offset=".42" stop-color="#65c8d0"/><stop offset="1" stop-color="#111b1d"/></linearGradient>
    <radialGradient id="wheel" cx="50%" cy="50%" r="50%"><stop offset="0" stop-color="#fff1ce"/><stop offset=".18" stop-color="#2d3435"/><stop offset=".52" stop-color="#070909"/><stop offset="1" stop-color="#000"/></radialGradient>
    <filter id="shadow"><feDropShadow dx="0" dy="28" stdDeviation="26" flood-color="#000" flood-opacity=".62"/></filter>
  </defs>
  <rect width="1280" height="760" fill="url(#bg)"/>
  <path d="M0 582 C260 522 540 512 860 548 C1030 568 1160 546 1280 510 L1280 760 L0 760Z" fill="#070909"/>
  <ellipse cx="650" cy="600" rx="470" ry="68" fill="#000" opacity=".52"/>
  <g filter="url(#shadow)">
    <path d="M108 520c68-88 174-138 318-151 67-91 167-136 301-135 142 1 256 52 344 153 67 9 121 29 162 61 25 20 20 58-10 73-82 40-219 60-412 60H349c-112 0-191-20-236-60-7-6-9-7-5-1Z" fill="url(#paint)"/>
    <path d="M422 366c59-72 140-108 244-108 108 0 196 38 264 113-85 5-172 7-260 5-82-2-164-5-248-10Z" fill="url(#glass)"/>
    <path d="M452 354c54-50 115-75 183-77l-38 94c-56-2-105-8-145-17Z" fill="#fff" opacity=".16"/>
    <path d="M152 517c111 25 246 38 407 38h333c135 0 246-17 333-50-49 54-189 80-419 80H350c-108 0-174-23-198-68Z" fill="#060808"/>
    <path d="M891 401c110 11 204 37 281 78-75 11-176 4-303-22Z" fill="#fff0b8" opacity=".82"/>
    <path d="M149 503c80-62 174-96 281-102l-57 96c-99 14-174 16-224 6Z" fill="#4fd4c8" opacity=".72"/>
    <path d="M545 420h370" stroke="#fff4c9" stroke-width="7" stroke-linecap="round" opacity=".5"/>
  </g>
  <circle cx="374" cy="578" r="92" fill="url(#wheel)"/>
  <circle cx="374" cy="578" r="56" fill="#111719" stroke="#d6914b" stroke-width="10"/>
  <circle cx="374" cy="578" r="15" fill="#fff6d4"/>
  <circle cx="918" cy="578" r="92" fill="url(#wheel)"/>
  <circle cx="918" cy="578" r="56" fill="#111719" stroke="#d6914b" stroke-width="10"/>
  <circle cx="918" cy="578" r="15" fill="#fff6d4"/>
</svg>
